# xmcd CD database file
# Copyright (C) 1993-1996 Ti Kan
#
# Track frame offsets:
# 150
# 17270
# 34365
# 47575
# 64622
# 81992
# 98560
# 111837
# 126692
# 143642
# 159235
#
# Disc length: 2170 seconds
#
# Revision: 0
# Processed by: cddbd v1.4b41PL1 Copyright (c) Steve Scherf et al.
# Submitted via: inCDius 1.1b5
#
DISCID=8908780b
DTITLE=Skip Ewing - A Healin' Fire
DYEAR=1900
DGENRE=
TTITLE0=A Healin' Fire
TTITLE1=I'm Your Man
TTITLE2=The Dotted Line
TTITLE3=I'm O. K. (And Gettin' Better)
TTITLE4=It Never Would've Worked Out
TTITLE5=Never 'Til I Loved You
TTITLE6=Dancin' To The Radio
TTITLE7=Let's Pretend We're Strangers
TTITLE8=Rebecca Lynn
TTITLE9=Love's Alright
TTITLE10=A Healin' Fire (Reprise)
EXTD=
EXTT0=
EXTT1=
EXTT2=
EXTT3=\t\t\t\t\n
EXTT4=
EXTT5=
EXTT6=
EXTT7=
EXTT8=
EXTT9=
EXTT10=
PLAYORDER=
